<svg width="24" height="24" viewBox="0 0 24 24" fill="none" xmlns="http://www.w3.org/2000/svg">
<g clip-path="url(#clip0_952_444)">
<path d="M20.25 10.543V14.9759C20.25 16.7373 20.2493 18.0091 20.1694 18.9434C20.0872 19.9043 19.9299 20.3325 19.7561 20.5419C19.3463 21.0359 18.7497 21.2891 18.1485 21.2451C17.9082 21.2275 17.5235 21.056 16.817 20.4374C16.1325 19.838 15.276 18.9414 14.0868 17.695L14.0667 17.6739C13.8115 17.4064 13.5889 17.1731 13.3899 16.9964C13.1797 16.8098 12.9443 16.6381 12.6496 16.5398C12.2273 16.3988 11.7727 16.3988 11.3504 16.5398C11.0557 16.6381 10.8203 16.8098 10.6101 16.9964C10.4111 17.1732 10.1885 17.4065 9.93321 17.674L9.91321 17.695C8.72404 18.9414 7.86753 19.838 7.18302 20.4374C6.47648 21.056 6.09176 21.2275 5.85149 21.2451C5.25028 21.2891 4.65369 21.0359 4.24387 20.5419C4.07014 20.3325 3.91281 19.9043 3.8306 18.9434C3.75067 18.0091 3.75 16.7373 3.75 14.9759V10.543C3.75 8.50914 3.75145 7.05578 3.89311 5.95143C4.03245 4.86518 4.29567 4.23067 4.73631 3.76883C5.17223 3.31194 5.76368 3.04278 6.78369 2.89905C7.82904 2.75175 9.20755 2.75 11.1509 2.75H12.8491C14.7924 2.75 16.171 2.75175 17.2163 2.89905C18.2363 3.04278 18.8278 3.31194 19.2637 3.76883C19.7043 4.23067 19.9675 4.86518 20.1069 5.95143C20.2485 7.05578 20.25 8.50914 20.25 10.543Z" stroke="#F8F9FA" stroke-width="1.5"/>
</g>
<defs>
<clipPath id="clip0_952_444">
<rect width="24" height="24" fill="white"/>
</clipPath>
</defs>
</svg>
