<svg width="24" height="24" viewBox="0 0 24 24" fill="none" xmlns="http://www.w3.org/2000/svg">
<rect x="8.77783" y="9.21191" width="6.44458" height="6.44458" rx="3.22229" stroke="#F8F9FA" stroke-width="1.5"/>
<path d="M6.61039 4.86924L6.60998 4.86947C6.06307 5.182 5.87479 5.89033 6.18763 6.43179L5.53823 6.807L6.18711 6.43089C6.72195 7.35364 6.86577 8.36506 6.38795 9.19422C5.9102 10.0233 4.96339 10.4056 3.89905 10.4056C3.26635 10.4056 2.75 10.9268 2.75 11.5546V13.3137C2.75 13.9416 3.26635 14.4628 3.89905 14.4628C4.96339 14.4628 5.9102 14.8451 6.38795 15.6742C6.86567 16.5031 6.72201 17.5143 6.18746 18.4369C5.87485 18.9783 6.06316 19.6864 6.60998 19.9989L6.61039 19.9991L8.33953 20.9886L8.35054 20.9949L8.35049 20.995C8.76872 21.2439 9.33193 21.1053 9.59936 20.6597L9.70675 20.4742L9.70694 20.4739C10.2416 19.5515 11.0473 18.9231 12.0037 18.9231C12.9608 18.9231 13.7642 19.5522 14.294 20.4755C14.2943 20.476 14.2946 20.4765 14.2948 20.477L14.4006 20.6597C14.6681 21.1053 15.2313 21.2438 15.6495 20.995L15.6604 20.9885L15.6605 20.9886L17.3896 19.9991L17.39 19.9989C17.9357 19.6871 18.1268 18.9882 17.8112 18.4346C17.811 18.4342 17.8108 18.4339 17.8106 18.4335L18.4618 18.0614C17.5522 16.4922 18.2919 15.2128 20.101 15.2128C21.1504 15.2128 22 14.3532 22 13.3137V11.5546C22 10.5051 21.1404 9.65557 20.101 9.65557C18.2919 9.65557 17.5522 8.37621 18.4618 6.807L6.61039 4.86924ZM6.61039 4.86924L8.33953 3.87974L8.33958 3.87983L8.35049 3.87334C8.76872 3.62452 9.33192 3.7631 9.59935 4.20866L9.70515 4.39139C9.70542 4.39187 9.7057 4.39235 9.70597 4.39282C10.2358 5.31619 11.0392 5.9453 11.9963 5.9453C12.9527 5.9453 13.7584 5.31691 14.2931 4.3945L14.2932 4.39417L14.4006 4.20866C14.6681 3.76311 15.2313 3.62452 15.6495 3.87334L15.6495 3.87343L15.6605 3.87974L17.3896 4.86924L17.39 4.86947C17.9368 5.18193 18.1251 5.89002 17.8126 6.43144L6.61039 4.86924Z" stroke="#F8F9FA" stroke-width="1.5" stroke-miterlimit="10" stroke-linecap="round" stroke-linejoin="round"/>
</svg>
